<svg width="23" height="20" viewBox="0 0 23 20" fill="none" xmlns="http://www.w3.org/2000/svg">
<rect x="0.75" width="22" height="20" rx="3" fill="#EDEDED"/>
<path d="M4.78871 15V5.54545H6.2152V13.772H10.4993V15H4.78871ZM11.9973 15V13.9659L15.1966 10.6513C15.5382 10.2912 15.8198 9.97573 16.0414 9.7049C16.266 9.43099 16.4338 9.17093 16.5446 8.92472C16.6554 8.6785 16.7108 8.4169 16.7108 8.13991C16.7108 7.82599 16.6369 7.55516 16.4892 7.32741C16.3414 7.09659 16.1399 6.91963 15.8844 6.79652C15.629 6.67034 15.3412 6.60724 15.0211 6.60724C14.6826 6.60724 14.3871 6.67649 14.1348 6.81499C13.8824 6.95348 13.6885 7.14891 13.5531 7.40128C13.4177 7.65365 13.35 7.9491 13.35 8.28764H11.9881C11.9881 7.71212 12.1204 7.20893 12.3851 6.77805C12.6498 6.34718 13.013 6.01326 13.4746 5.77628C13.9363 5.53622 14.461 5.41619 15.0488 5.41619C15.6428 5.41619 16.166 5.53468 16.6184 5.77166C17.0739 6.00556 17.4294 6.32564 17.6848 6.73189C17.9403 7.13506 18.068 7.59055 18.068 8.09837C18.068 8.44922 18.0018 8.79238 17.8695 9.12784C17.7402 9.4633 17.514 9.83724 17.1909 10.2496C16.8677 10.659 16.4184 11.156 15.8429 11.7408L13.964 13.7074V13.7766H18.2203V15H11.9973Z" fill="#7E7E7E"/>
</svg>
