<svg width="23" height="20" viewBox="0 0 23 20" fill="none" xmlns="http://www.w3.org/2000/svg">
<rect x="0.75" width="22" height="20" rx="3" fill="#EDEDED"/>
<path d="M4.78871 15V5.54545H6.2152V13.772H10.4993V15H4.78871ZM15.2889 15.1293C14.6549 15.1293 14.0886 15.02 13.59 14.8015C13.0945 14.583 12.7021 14.2798 12.4128 13.892C12.1266 13.5012 11.9727 13.0488 11.9512 12.5348H13.4007C13.4192 12.8149 13.5131 13.058 13.6824 13.2642C13.8547 13.4673 14.0794 13.6243 14.3564 13.7351C14.6333 13.8459 14.9411 13.9013 15.2797 13.9013C15.652 13.9013 15.9814 13.8366 16.2676 13.7074C16.5569 13.5781 16.7831 13.3981 16.9462 13.1673C17.1093 12.9334 17.1909 12.6641 17.1909 12.3594C17.1909 12.0424 17.1093 11.7638 16.9462 11.5238C16.7862 11.2807 16.5507 11.0898 16.2399 10.9513C15.9321 10.8129 15.5597 10.7436 15.1227 10.7436H14.324V9.58026H15.1227C15.4735 9.58026 15.7813 9.51716 16.046 9.39098C16.3137 9.2648 16.523 9.08937 16.6738 8.8647C16.8246 8.63696 16.9 8.37074 16.9 8.06605C16.9 7.77367 16.8339 7.51977 16.7015 7.30433C16.5723 7.08582 16.3876 6.91501 16.1475 6.7919C15.9106 6.6688 15.6305 6.60724 15.3074 6.60724C14.9996 6.60724 14.7118 6.66418 14.4441 6.77805C14.1794 6.88885 13.964 7.04889 13.7978 7.25817C13.6316 7.46437 13.5423 7.71212 13.53 8.00142H12.1497C12.1651 7.49053 12.3159 7.04119 12.6021 6.65341C12.8914 6.26562 13.273 5.96248 13.747 5.74396C14.2209 5.52545 14.7472 5.41619 15.3258 5.41619C15.9321 5.41619 16.4553 5.53468 16.8954 5.77166C17.3386 6.00556 17.6802 6.31794 17.9203 6.70881C18.1634 7.09967 18.2834 7.52746 18.2804 7.99219C18.2834 8.52154 18.1357 8.97088 17.8372 9.3402C17.5417 9.70952 17.1478 9.95727 16.6554 10.0835V10.1573C17.2832 10.2527 17.7695 10.502 18.1142 10.9052C18.4619 11.3084 18.6343 11.8085 18.6312 12.4055C18.6343 12.9257 18.4896 13.3919 18.1973 13.8043C17.908 14.2167 17.5125 14.5414 17.0108 14.7784C16.5092 15.0123 15.9352 15.1293 15.2889 15.1293Z" fill="#7E7E7E"/>
</svg>
