<svg width="38" height="20" viewBox="0 0 38 20" fill="none" xmlns="http://www.w3.org/2000/svg">
<rect x="0.5" width="37" height="20" rx="6" fill="#E34949"/>
<path d="M14.2294 10.2727C14.2294 11.2822 14.0448 12.1501 13.6755 12.8764C13.3062 13.5997 12.7999 14.1567 12.1567 14.5476C11.5165 14.9354 10.7886 15.1293 9.97306 15.1293C9.1544 15.1293 8.42346 14.9354 7.78023 14.5476C7.14008 14.1567 6.63534 13.5981 6.26602 12.8718C5.89671 12.1455 5.71205 11.2791 5.71205 10.2727C5.71205 9.26326 5.89671 8.3969 6.26602 7.67365C6.63534 6.94732 7.14008 6.39027 7.78023 6.00249C8.42346 5.61162 9.1544 5.41619 9.97306 5.41619C10.7886 5.41619 11.5165 5.61162 12.1567 6.00249C12.7999 6.39027 13.3062 6.94732 13.6755 7.67365C14.0448 8.3969 14.2294 9.26326 14.2294 10.2727ZM12.8168 10.2727C12.8168 9.50331 12.6922 8.85547 12.4429 8.32919C12.1967 7.79983 11.8581 7.39974 11.4272 7.12891C10.9995 6.855 10.5147 6.71804 9.97306 6.71804C9.42831 6.71804 8.94204 6.855 8.51425 7.12891C8.08646 7.39974 7.74791 7.79983 7.49862 8.32919C7.25241 8.85547 7.12931 9.50331 7.12931 10.2727C7.12931 11.0421 7.25241 11.6915 7.49862 12.2209C7.74791 12.7472 8.08646 13.1473 8.51425 13.4212C8.94204 13.692 9.42831 13.8274 9.97306 13.8274C10.5147 13.8274 10.9995 13.692 11.4272 13.4212C11.8581 13.1473 12.1967 12.7472 12.4429 12.2209C12.6922 11.6915 12.8168 11.0421 12.8168 10.2727ZM22.0878 5.54545H23.519V11.7638C23.519 12.4255 23.3635 13.0118 23.0527 13.5227C22.7418 14.0305 22.3048 14.4306 21.7416 14.723C21.1784 15.0123 20.5182 15.157 19.7611 15.157C19.0071 15.157 18.3485 15.0123 17.7853 14.723C17.2221 14.4306 16.7851 14.0305 16.4742 13.5227C16.1634 13.0118 16.0079 12.4255 16.0079 11.7638V5.54545H17.4344V11.6484C17.4344 12.0762 17.5283 12.4563 17.716 12.7887C17.9069 13.1211 18.1762 13.3827 18.5239 13.5735C18.8717 13.7612 19.2841 13.8551 19.7611 13.8551C20.2413 13.8551 20.6552 13.7612 21.003 13.5735C21.3538 13.3827 21.6216 13.1211 21.8062 12.7887C21.994 12.4563 22.0878 12.0762 22.0878 11.6484V5.54545ZM25.1266 6.77344V5.54545H32.4438V6.77344H29.4938V15H28.072V6.77344H25.1266Z" fill="white"/>
</svg>
