<svg width="20" height="20" viewBox="0 0 24 24" fill="none" xmlns="http://www.w3.org/2000/svg">
<path d="M2 5.75C2 4.23122 3.23122 3 4.75 3H8.92963C9.8491 3 10.7077 3.45953 11.2178 4.22457L12.3272 5.88867C12.3735 5.95822 12.4516 6 12.5352 6H19.25C20.7688 6 22 7.23122 22 8.75V17.25C22 18.7688 20.7688 20 19.25 20H12.75V14.8107L13.9697 16.0303C14.2626 16.3232 14.7374 16.3232 15.0303 16.0303C15.3232 15.7374 15.3232 15.2626 15.0303 14.9697L12.5303 12.4697C12.2374 12.1768 11.7626 12.1768 11.4697 12.4697L8.96967 14.9697C8.67678 15.2626 8.67678 15.7374 8.96967 16.0303C9.26256 16.3232 9.73744 16.3232 10.0303 16.0303L11.25 14.8107V20H4.75C3.23122 20 2 18.7688 2 17.25V5.75Z" fill="#E8E8E8"/>
</svg>
