<svg width="28" height="20" viewBox="0 0 28 20" fill="none" xmlns="http://www.w3.org/2000/svg">
<rect width="28" height="20" rx="6" fill="#188D52"/>
<path d="M13.3999 10.2727C13.3999 11.2822 13.2152 12.1501 12.8459 12.8764C12.4766 13.5997 11.9703 14.1567 11.3271 14.5476C10.6869 14.9354 9.95904 15.1293 9.14347 15.1293C8.32481 15.1293 7.59387 14.9354 6.95064 14.5476C6.31049 14.1567 5.80575 13.5981 5.43643 12.8718C5.06712 12.1455 4.88246 11.2791 4.88246 10.2727C4.88246 9.26326 5.06712 8.3969 5.43643 7.67365C5.80575 6.94732 6.31049 6.39027 6.95064 6.00249C7.59387 5.61162 8.32481 5.41619 9.14347 5.41619C9.95904 5.41619 10.6869 5.61162 11.3271 6.00249C11.9703 6.39027 12.4766 6.94732 12.8459 7.67365C13.2152 8.3969 13.3999 9.26326 13.3999 10.2727ZM11.9872 10.2727C11.9872 9.50331 11.8626 8.85547 11.6133 8.32919C11.3671 7.79983 11.0285 7.39974 10.5977 7.12891C10.1699 6.855 9.68513 6.71804 9.14347 6.71804C8.59872 6.71804 8.11245 6.855 7.68466 7.12891C7.25687 7.39974 6.91832 7.79983 6.66903 8.32919C6.42282 8.85547 6.29972 9.50331 6.29972 10.2727C6.29972 11.0421 6.42282 11.6915 6.66903 12.2209C6.91832 12.7472 7.25687 13.1473 7.68466 13.4212C8.11245 13.692 8.59872 13.8274 9.14347 13.8274C9.68513 13.8274 10.1699 13.692 10.5977 13.4212C11.0285 13.1473 11.3671 12.7472 11.6133 12.2209C11.8626 11.6915 11.9872 11.0421 11.9872 10.2727ZM22.8094 5.54545V15H21.4983L16.6926 8.06605H16.6048V15H15.1784V5.54545H16.4987L21.309 12.4886H21.3968V5.54545H22.8094Z" fill="white"/>
</svg>
